<?xml version="1.0" encoding="UTF-8"?>
<!DOCTYPE svg PUBLIC "-//W3C//DTD SVG 1.1//EN" "http://www.w3.org/Graphics/SVG/1.1/DTD/svg11.dtd">
<!-- Creator: CorelDRAW X5 -->
<svg xmlns="http://www.w3.org/2000/svg" xml:space="preserve" width="50mm" height="50mm" style="shape-rendering:geometricPrecision; text-rendering:geometricPrecision; image-rendering:optimizeQuality; fill-rule:evenodd; clip-rule:evenodd"
viewBox="0 0 834 834"
 xmlns:xlink="http://www.w3.org/1999/xlink">
 <defs>
  <style type="text/css">
   <![CDATA[
    .fil0 {fill:#2B2A29}
    .fil1 {fill:#FEFEFE}
    .fil2 {fill:#2B2A29;fill-rule:nonzero}
   ]]>
  </style>
 </defs>
 <g id="Ebene_x0020_1">
  <metadata id="CorelCorpID_0Corel-Layer"/>
  <g id="_329387680">
   <g>
    <circle class="fil0" cx="417" cy="417" r="417"/>
    <circle class="fil1" cx="417" cy="417" r="384"/>
   </g>
   <path class="fil2" d="M173 569l-80 -303 41 0 46 199c5,21 9,42 13,62 8,-32 12,-51 14,-56l58 -205 48 0 43 154c11,38 19,74 24,107 4,-19 9,-41 15,-66l48 -195 40 0 -83 303 -39 0 -64 -231c-5,-19 -9,-31 -10,-36 -3,14 -6,26 -9,36l-64 231 -41 0z"/>
   <path id="1" class="fil2" d="M518 569l0 -303 114 0c23,0 42,3 56,9 14,6 25,16 33,28 8,13 12,26 12,40 0,13 -4,25 -11,37 -7,11 -18,21 -32,28 18,5 32,15 42,27 10,13 15,28 15,46 0,14 -3,27 -9,40 -6,12 -13,22 -22,28 -9,7 -20,12 -33,15 -13,3 -30,5 -49,5l-116 0zm40 -176l66 0c18,0 31,-1 38,-4 10,-3 18,-8 23,-15 5,-7 8,-16 8,-26 0,-10 -2,-19 -7,-27 -5,-8 -12,-13 -21,-16 -9,-3 -24,-4 -46,-4l-61 0 0 92zm0 140l75 0c13,0 22,0 27,-1 9,-2 17,-4 23,-8 6,-4 11,-9 15,-17 4,-7 6,-16 6,-26 0,-11 -3,-21 -9,-30 -6,-8 -14,-14 -24,-18 -10,-3 -25,-5 -44,-5l-70 0 0 104z"/>
  </g>
 </g>
</svg>
