<?xml version="1.0" encoding="UTF-8"?>
<!DOCTYPE svg PUBLIC "-//W3C//DTD SVG 1.1//EN" "http://www.w3.org/Graphics/SVG/1.1/DTD/svg11.dtd">
<!-- Creator: CorelDRAW 2017 -->
<svg xmlns="http://www.w3.org/2000/svg" xml:space="preserve" width="77mm" height="52mm" version="1.1" style="shape-rendering:geometricPrecision; text-rendering:geometricPrecision; image-rendering:optimizeQuality; fill-rule:evenodd; clip-rule:evenodd"
viewBox="0 0 7700 5200"
 xmlns:xlink="http://www.w3.org/1999/xlink">
 <defs>
  <style type="text/css">
   <![CDATA[
    .str0 {stroke:black;stroke-width:200;stroke-miterlimit:22.9256}
    .fil0 {fill:none}
    .fil1 {fill:black}
   ]]>
  </style>
 </defs>
 <g id="Ebene_x0020_1">
  <metadata id="CorelCorpID_0Corel-Layer"/>
  <rect class="fil0 str0" x="100" y="100" width="7500" height="5000"/>
  <path class="fil1" d="M2774.22 3774.24l-255.92 123.51c15.36,65.44 54.69,119.51 78.34,177.89 25.5,63.29 65.13,117.98 80.8,184.03l176.66 -61.75c46.7,-18.43 504.17,-191.41 538.58,-194.17 -8.91,-37.79 -17.21,-49.16 -31.64,-83.26 -102,-241.79 -265.14,-650.41 -319.21,-881.45 -80.19,-342.56 -185.57,-750.88 70.36,-1063.64 54.07,-66.06 31.34,-37.18 82.65,-85.1l23.66 -20.58c284.8,-223.05 678.68,-275.28 1009.26,-148.7 111.53,42.71 177.27,84.49 266.68,157 419.68,342.56 230.42,985.6 86.95,1416.04 -77.12,231.35 -114.6,321.06 -200.93,531.82 -13.83,33.8 -66.67,143.48 -69.43,177.58 54.07,12.6 204,69.74 267.29,94.63 60.52,23.96 425.82,159.76 447.64,161.6 2.15,-27.34 60.52,-146.55 76.5,-179.73 22.43,-46.39 71.59,-135.49 82.65,-182.19l-254.39 -126.89c90.63,-170.21 197.24,-433.81 264.53,-613.24 37.79,-101.08 78.96,-219.98 106.61,-334.88 75.89,-316.14 95.55,-649.49 -25.81,-957.95 -32.87,-83.57 -76.19,-166.83 -121.05,-240.87 -91.25,-150.24 -214.45,-266.37 -353.32,-370.52 -36.56,-27.34 -64.21,-49.16 -105.07,-71.28 -84.8,-45.78 -149.62,-81.42 -242.71,-119.21 -187.72,-76.19 -432.89,-122.28 -645.8,-122.28 -93.09,0 -174.82,21.81 -256.23,35.33 -232.27,38.4 -541.34,175.74 -712.47,320.44 -59.91,50.69 -185.88,170.21 -222.74,227.35 -12.29,19.36 -13.52,23.35 -27.96,42.71 -40.55,53.77 -55.61,78.04 -90.02,139.48 -106,190.18 -176.04,487.89 -156.69,718.31 21.2,249.17 14.75,234.73 88.79,502.63 37.18,134.57 257.46,717.7 344.41,847.35l-0.97 -0.01z"/>
 </g>
</svg>
