<?xml version="1.0" encoding="UTF-8"?>
<!DOCTYPE svg PUBLIC "-//W3C//DTD SVG 1.1//EN" "http://www.w3.org/Graphics/SVG/1.1/DTD/svg11.dtd">
<!-- Creator: CorelDRAW X5 -->
<svg xmlns="http://www.w3.org/2000/svg" xml:space="preserve" width="50mm" height="50mm" style="shape-rendering:geometricPrecision; text-rendering:geometricPrecision; image-rendering:optimizeQuality; fill-rule:evenodd; clip-rule:evenodd"
viewBox="0 0 1311 1311"
 xmlns:xlink="http://www.w3.org/1999/xlink">
 <defs>
  <style type="text/css">
   <![CDATA[
    .fil0 {fill:#2B2A29}
    .fil1 {fill:#FEFEFE}
    .fil2 {fill:#2B2A29;fill-rule:nonzero}
   ]]>
  </style>
 </defs>
 <g id="Ebene_x0020_1">
  <metadata id="CorelCorpID_0Corel-Layer"/>
  <g id="_324290272">
   <g>
    <circle class="fil0" cx="655" cy="655" r="655"/>
    <circle class="fil1" cx="655" cy="655" r="603"/>
   </g>
   <path class="fil2" d="M574 417l63 0 0 275c0,48 -5,86 -16,114 -11,28 -30,51 -59,69 -28,18 -65,27 -111,27 -45,0 -81,-8 -110,-23 -28,-15 -49,-38 -61,-67 -12,-29 -18,-69 -18,-119l0 -275 63 0 0 275c0,41 4,72 12,91 8,20 21,35 40,45 19,11 42,16 69,16 46,0 79,-11 99,-32 20,-21 30,-61 30,-121l0 -275z"/>
   <path id="1" class="fil2" d="M721 741l59 -5c3,24 9,43 20,59 10,15 26,28 48,37 22,9 46,14 73,14 24,0 45,-4 64,-11 18,-7 32,-17 41,-29 9,-13 14,-26 14,-41 0,-15 -4,-28 -13,-39 -9,-11 -23,-21 -43,-28 -13,-5 -41,-13 -85,-23 -44,-11 -74,-20 -92,-30 -23,-12 -40,-27 -51,-44 -11,-18 -17,-37 -17,-59 0,-24 7,-46 20,-67 14,-21 34,-37 60,-48 26,-11 55,-16 87,-16 35,0 66,6 94,17 27,11 48,28 62,50 14,22 22,47 23,75l-60 5c-3,-30 -14,-53 -33,-68 -19,-15 -46,-23 -83,-23 -38,0 -66,7 -83,21 -17,14 -26,31 -26,50 0,17 6,31 19,42 12,11 44,22 95,34 51,12 86,22 106,30 28,13 48,29 61,49 13,20 20,42 20,68 0,25 -7,49 -22,72 -15,22 -35,40 -63,52 -27,12 -58,19 -92,19 -43,0 -79,-6 -108,-19 -29,-13 -52,-31 -69,-57 -17,-25 -25,-54 -26,-86z"/>
  </g>
 </g>
</svg>
