<?xml version="1.0" encoding="UTF-8"?>
<!DOCTYPE svg PUBLIC "-//W3C//DTD SVG 1.1//EN" "http://www.w3.org/Graphics/SVG/1.1/DTD/svg11.dtd">
<!-- Creator: CorelDRAW 2017 -->
<svg xmlns="http://www.w3.org/2000/svg" xml:space="preserve" width="77mm" height="52mm" version="1.1" style="shape-rendering:geometricPrecision; text-rendering:geometricPrecision; image-rendering:optimizeQuality; fill-rule:evenodd; clip-rule:evenodd"
viewBox="0 0 7700 5200"
 xmlns:xlink="http://www.w3.org/1999/xlink">
 <defs>
  <style type="text/css">
   <![CDATA[
    .str0 {stroke:black;stroke-width:200;stroke-miterlimit:22.9256}
    .fil0 {fill:none}
    .fil1 {fill:black;fill-rule:nonzero}
   ]]>
  </style>
 </defs>
 <g id="Ebene_x0020_1">
  <metadata id="CorelCorpID_0Corel-Layer"/>
  <rect class="fil0 str0" x="100" y="100" width="7500" height="5000"/>
 </g>
 <g id="Ebene_x0020_1_0">
  <metadata id="CorelCorpID_1Corel-Layer"/>
  <g id="_1736626354800">
   <path class="fil1" d="M818.17 1300.42l0 0c172.1,-165.81 315.32,-276.15 430.24,-331.33 117.49,-55.46 242.13,-80.33 372.78,-73.47 160.95,8.58 360.2,78.33 596.33,212.12 237.28,133.5 410.51,218.41 520,255.57 109.49,38.31 225.84,59.75 347.91,66.04 168.38,8.86 319.89,-13.44 456.54,-67.75 89.19,-36.02 177.24,-74.61 246.99,-139.79 54.03,-39.45 107.77,-84.62 161.8,-135.5l0.29 -6.58c85.48,-68.9 161.52,-119.21 228.13,-151.23 117.49,-55.46 242.13,-80.33 372.78,-73.47 160.95,8.58 360.2,78.33 596.33,212.12 237.28,133.5 410.51,218.41 520,255.86 109.49,38.31 225.84,59.75 347.91,66.04 168.38,8.86 319.89,-13.44 456.54,-67.75 135.22,-54.6 272.15,-146.37 408.8,-275.3l0 257.29c-136.36,128.93 -273.3,220.69 -408.8,275.3 -136.36,54.6 -288.16,76.61 -456.54,67.75 -122.35,-6.58 -238.7,-27.73 -347.91,-66.04 -109.49,-37.16 -282.73,-122.07 -520,-255.86 -236.13,-133.5 -435.39,-203.54 -596.33,-212.12 -130.64,-6.86 -255.29,18.01 -372.78,73.47 -66.61,31.73 -142.65,82.05 -228.13,151.23l-0.29 6.58c-54.03,50.89 -107.77,96.05 -161.8,135.5 -69.75,65.18 -157.8,104.06 -246.99,139.79 -136.36,54.6 -288.16,76.9 -456.54,67.75 -122.35,-6.58 -238.7,-27.73 -347.91,-66.04 -109.49,-37.16 -282.73,-122.07 -520,-255.57 -236.13,-133.5 -435.39,-203.54 -596.33,-212.12 -130.64,-6.86 -255.29,18.01 -372.78,73.47 -115.21,54.89 -258.14,165.23 -430.24,331.33l0 -257.29z"/>
   <path class="fil1" d="M818.17 1964.79l0 0c172.1,-165.81 315.32,-276.15 430.24,-331.33 117.49,-55.46 242.13,-80.33 372.78,-73.47 160.95,8.58 360.2,78.33 596.33,212.12 237.28,133.5 410.51,218.41 520,255.57 109.49,38.31 225.84,59.75 347.91,66.04 168.38,8.86 319.89,-13.44 456.54,-67.75 89.19,-36.02 177.24,-74.61 246.99,-139.79 54.03,-39.45 107.77,-84.62 161.8,-135.5l0.29 -6.58c85.48,-68.9 161.52,-119.21 228.13,-151.23 117.49,-55.46 242.13,-80.33 372.78,-73.47 160.95,8.58 360.2,78.33 596.33,212.12 237.28,133.79 410.51,218.41 520,255.86 109.49,38.31 225.84,59.75 347.91,66.04 168.38,8.86 319.89,-13.44 456.54,-67.75 135.22,-54.6 272.15,-146.37 408.8,-275.3l0 257.29c-136.36,128.93 -273.3,220.69 -408.8,275.3 -136.36,54.6 -288.16,76.9 -456.54,67.75 -122.35,-6.58 -238.7,-27.73 -347.91,-66.04 -109.49,-37.16 -282.73,-122.07 -520,-255.86 -236.13,-133.5 -435.39,-203.54 -596.33,-212.12 -130.64,-6.86 -255.29,18.01 -372.78,73.47 -66.61,31.73 -142.65,82.05 -228.13,151.23l-0.29 6.58c-54.03,50.89 -107.77,96.05 -161.8,135.5 -69.75,65.18 -157.8,104.06 -246.99,139.79 -136.36,54.6 -288.16,76.9 -456.54,67.75 -122.35,-6.58 -238.7,-27.73 -347.91,-66.04 -109.49,-37.16 -282.73,-122.07 -520,-255.57 -236.13,-133.5 -435.39,-203.54 -596.33,-212.12 -130.64,-6.86 -255.29,18.01 -372.78,73.47 -115.21,54.89 -258.14,165.23 -430.24,331.33l0 -257.29z"/>
   <path class="fil1" d="M818.17 2628.87l0 0c172.1,-165.81 315.32,-276.15 430.24,-331.33 117.49,-55.46 242.13,-80.33 372.78,-73.47 160.95,8.58 360.2,78.33 596.33,212.12 237.28,133.5 410.51,218.41 520,255.57 109.49,38.31 225.84,59.75 347.91,66.04 168.38,8.86 319.89,-13.44 456.54,-67.75 89.19,-36.02 177.24,-74.61 246.99,-139.79 54.03,-39.45 107.77,-84.62 161.8,-135.5l0.29 -6.58c85.48,-68.9 161.52,-119.21 228.13,-151.23 117.49,-55.46 242.13,-80.33 372.78,-73.47 160.95,8.58 360.2,78.33 596.33,212.12 237.28,133.5 410.51,218.41 520,255.86 109.49,38.31 225.84,59.75 347.91,66.04 168.38,8.86 319.89,-13.44 456.54,-67.75 135.22,-54.6 272.15,-146.37 408.8,-275.3l0 257.29c-136.36,128.93 -273.3,220.69 -408.8,275.3 -136.36,54.6 -288.16,76.61 -456.54,67.75 -122.35,-6.58 -238.7,-27.73 -347.91,-66.04 -109.49,-37.16 -282.73,-122.07 -520,-255.86 -236.13,-133.5 -435.39,-203.54 -596.33,-212.12 -130.64,-6.86 -255.29,18.01 -372.78,73.47 -66.61,31.73 -142.65,82.05 -228.13,151.23l-0.29 6.58c-54.03,50.89 -107.77,96.05 -161.8,135.5 -69.75,65.18 -157.8,104.06 -246.99,139.79 -136.36,54.6 -288.16,76.61 -456.54,67.75 -122.35,-6.58 -238.7,-27.73 -347.91,-66.04 -109.49,-37.16 -282.73,-122.07 -520,-255.57 -236.13,-133.5 -435.39,-203.54 -596.33,-212.12 -130.64,-6.86 -255.29,18.01 -372.78,73.47 -115.21,54.89 -258.14,165.23 -430.24,331.33l0 -257.29z"/>
   <path class="fil1" d="M818.17 3293.24l0 0c172.1,-165.81 315.32,-276.15 430.24,-331.33 117.49,-55.46 242.13,-80.33 372.78,-73.47 160.95,8.58 360.2,78.33 596.33,212.12 237.28,133.5 410.51,218.41 520,255.86 109.49,38.31 225.84,59.75 347.91,66.04 168.38,8.86 319.89,-13.44 456.54,-67.75 89.19,-36.02 177.24,-74.61 246.99,-139.79 54.03,-39.45 107.77,-84.62 161.8,-135.5l0.29 -6.58c85.48,-68.9 161.52,-119.21 228.13,-151.23 117.49,-55.46 242.13,-80.33 372.78,-73.47 160.95,8.58 360.2,78.33 596.33,212.12 237.28,133.79 410.51,218.41 520,255.86 109.49,38.31 225.84,59.75 347.91,66.04 168.38,8.86 319.89,-13.44 456.54,-67.75 135.22,-54.6 272.15,-146.37 408.8,-275.3l0 257.29c-136.36,128.93 -273.3,220.69 -408.8,275.3 -136.36,54.6 -288.16,76.9 -456.54,67.75 -122.35,-6.58 -238.7,-27.73 -347.91,-66.04 -109.49,-37.16 -282.73,-122.07 -520,-255.86 -236.13,-133.5 -435.39,-203.54 -596.33,-212.12 -130.64,-6.86 -255.29,18.01 -372.78,73.47 -66.61,31.73 -142.65,82.05 -228.13,151.23l-0.29 6.58c-54.03,50.89 -107.77,96.05 -161.8,135.5 -69.75,65.18 -157.8,104.06 -246.99,139.79 -136.36,54.6 -288.16,76.9 -456.54,67.75 -122.35,-6.58 -238.7,-27.73 -347.91,-66.04 -109.49,-37.16 -282.73,-122.07 -520,-255.57 -236.13,-133.5 -435.39,-203.54 -596.33,-212.12 -130.64,-6.86 -255.29,18.01 -372.78,73.47 -115.21,54.89 -258.14,165.23 -430.24,331.33l0 -257.29 0 -0.29z"/>
   <path class="fil1" d="M818.17 3957.33l0 0c172.1,-165.81 315.32,-276.15 430.24,-331.33 117.49,-55.46 242.13,-80.33 372.78,-73.47 160.95,8.58 360.2,78.33 596.33,212.12 237.28,133.5 410.51,218.41 520,255.57 109.49,38.31 225.84,59.75 347.91,66.04 168.38,8.86 319.89,-13.44 456.54,-67.75 89.19,-36.02 177.24,-74.61 246.99,-139.79 54.03,-39.45 107.77,-84.62 161.8,-135.5l0.29 -6.58c85.48,-68.9 161.52,-119.21 228.13,-151.23 117.49,-55.46 242.13,-80.33 372.78,-73.47 160.95,8.58 360.2,78.33 596.33,212.12 237.28,133.79 410.51,218.41 520,255.86 109.49,38.31 225.84,59.75 347.91,66.04 168.38,8.86 319.89,-13.44 456.54,-67.75 135.22,-54.6 272.15,-146.37 408.8,-275.3l0 257.29c-136.36,128.93 -273.3,220.69 -408.8,275.3 -136.36,54.6 -288.16,76.9 -456.54,67.75 -122.35,-6.58 -238.7,-27.73 -347.91,-66.04 -109.49,-37.16 -282.73,-122.07 -520,-255.86 -236.13,-133.5 -435.39,-203.54 -596.33,-212.12 -130.64,-6.86 -255.29,18.01 -372.78,73.47 -66.61,31.73 -142.65,82.05 -228.13,151.23l-0.29 6.58c-54.03,50.89 -107.77,96.05 -161.8,135.5 -69.75,65.18 -157.8,104.06 -246.99,139.79 -136.36,54.6 -288.16,76.61 -456.54,67.75 -122.35,-6.58 -238.7,-27.73 -347.91,-66.04 -109.49,-37.16 -282.73,-122.07 -520,-255.57 -236.13,-133.5 -435.39,-203.54 -596.33,-212.12 -130.64,-6.86 -255.29,18.01 -372.78,73.47 -115.21,54.89 -258.14,165.23 -430.24,331.33l0 -257.29z"/>
  </g>
 </g>
</svg>
