<?xml version="1.0" encoding="UTF-8"?>
<!DOCTYPE svg PUBLIC "-//W3C//DTD SVG 1.1//EN" "http://www.w3.org/Graphics/SVG/1.1/DTD/svg11.dtd">
<!-- Creator: CorelDRAW X5 -->
<svg xmlns="http://www.w3.org/2000/svg" xml:space="preserve" width="50mm" height="50mm" style="shape-rendering:geometricPrecision; text-rendering:geometricPrecision; image-rendering:optimizeQuality; fill-rule:evenodd; clip-rule:evenodd"
viewBox="0 0 1292 1292"
 xmlns:xlink="http://www.w3.org/1999/xlink">
 <defs>
  <style type="text/css">
   <![CDATA[
    .fil0 {fill:#2B2A29}
    .fil1 {fill:#FEFEFE}
    .fil2 {fill:#2B2A29;fill-rule:nonzero}
   ]]>
  </style>
 </defs>
 <g id="Ebene_x0020_1">
  <metadata id="CorelCorpID_0Corel-Layer"/>
  <g id="_386679400">
   <g>
    <circle class="fil0" cx="646" cy="646" r="646"/>
    <circle class="fil1" cx="646" cy="646" r="594"/>
   </g>
   <polygon class="fil2" points="310,881 310,411 372,411 372,825 603,825 603,881 "/>
   <path id="1" class="fil2" d="M675 881l0 -470 176 0c36,0 65,5 86,14 22,10 39,24 51,44 12,20 18,40 18,62 0,20 -5,39 -16,57 -11,18 -27,32 -49,43 28,8 50,23 66,43 15,20 23,44 23,71 0,22 -5,42 -14,61 -9,19 -21,33 -34,44 -14,10 -31,18 -51,23 -21,5 -46,8 -76,8l-179 0zm62 -272l102 0c27,0 47,-2 59,-5 16,-5 28,-12 36,-23 8,-11 12,-25 12,-41 0,-16 -4,-29 -11,-41 -8,-12 -18,-20 -32,-24 -14,-4 -38,-7 -72,-7l-94 0 0 142zm0 217l117 0c20,0 34,-1 42,-2 14,-3 26,-7 36,-13 10,-6 17,-15 24,-26 6,-11 9,-25 9,-40 0,-17 -4,-33 -13,-46 -9,-13 -21,-22 -37,-27 -16,-5 -39,-8 -69,-8l-109 0 0 161z"/>
  </g>
 </g>
</svg>
