<?xml version="1.0" encoding="UTF-8"?>
<!DOCTYPE svg PUBLIC "-//W3C//DTD SVG 1.1//EN" "http://www.w3.org/Graphics/SVG/1.1/DTD/svg11.dtd">
<!-- Creator: CorelDRAW X5 -->
<svg xmlns="http://www.w3.org/2000/svg" xml:space="preserve" width="50mm" height="50mm" style="shape-rendering:geometricPrecision; text-rendering:geometricPrecision; image-rendering:optimizeQuality; fill-rule:evenodd; clip-rule:evenodd"
viewBox="0 0 1311 1311"
 xmlns:xlink="http://www.w3.org/1999/xlink">
 <defs>
  <style type="text/css">
   <![CDATA[
    .fil0 {fill:#2B2A29}
    .fil1 {fill:#FEFEFE}
    .fil2 {fill:#2B2A29;fill-rule:nonzero}
   ]]>
  </style>
 </defs>
 <g id="Ebene_x0020_1">
  <metadata id="CorelCorpID_0Corel-Layer"/>
  <g id="_324289840">
   <g>
    <circle class="fil0" cx="655" cy="655" r="655"/>
    <circle class="fil1" cx="655" cy="655" r="603"/>
   </g>
   <path class="fil2" d="M806 461l63 0 0 275c0,48 -5,86 -16,114 -11,28 -30,51 -59,69 -28,18 -65,27 -111,27 -45,0 -81,-8 -110,-23 -28,-15 -49,-38 -61,-67 -12,-29 -18,-69 -18,-119l0 -275 63 0 0 275c0,41 4,72 12,91 8,20 21,35 40,45 19,11 42,16 69,16 46,0 79,-11 99,-32 20,-21 30,-61 30,-121l0 -275zm-217 -29l0 -67 61 0 0 67 -61 0zm121 0l0 -67 61 0 0 67 -61 0z"/>
  </g>
 </g>
</svg>
