<?xml version="1.0" encoding="UTF-8"?>
<!DOCTYPE svg PUBLIC "-//W3C//DTD SVG 1.1//EN" "http://www.w3.org/Graphics/SVG/1.1/DTD/svg11.dtd">
<!-- Creator: CorelDRAW X5 -->
<svg xmlns="http://www.w3.org/2000/svg" xml:space="preserve" width="49.9493mm" height="49.9493mm" style="shape-rendering:geometricPrecision; text-rendering:geometricPrecision; image-rendering:optimizeQuality; fill-rule:evenodd; clip-rule:evenodd"
viewBox="0 0 1289 1289"
 xmlns:xlink="http://www.w3.org/1999/xlink">
 <defs>
  <style type="text/css">
   <![CDATA[
    .fil0 {fill:#2B2A29}
    .fil1 {fill:#FEFEFE}
    .fil2 {fill:#2B2A29;fill-rule:nonzero}
   ]]>
  </style>
 </defs>
 <g id="Ebene_x0020_1">
  <metadata id="CorelCorpID_0Corel-Layer"/>
  <g id="_485312096">
   <g>
    <rect class="fil0" width="1289" height="1289"/>
    <rect class="fil1" x="55" y="51" width="1187" height="1187"/>
   </g>
   <path class="fil2" d="M441 695l0 -55 199 0 0 174c-30,24 -62,43 -94,55 -32,12 -66,18 -100,18 -46,0 -88,-10 -126,-30 -38,-20 -66,-48 -85,-86 -19,-37 -29,-79 -29,-125 0,-46 10,-88 29,-128 19,-40 47,-69 82,-88 36,-19 77,-29 124,-29 34,0 65,5 92,16 27,11 49,26 64,46 16,20 27,45 36,77l-56 15c-7,-24 -16,-43 -26,-56 -10,-14 -25,-25 -45,-33 -19,-8 -41,-12 -65,-12 -28,0 -53,4 -74,13 -21,9 -37,20 -50,34 -13,14 -23,30 -30,46 -12,29 -18,60 -18,94 0,42 7,77 22,105 14,28 35,49 63,63 28,14 57,21 88,21 27,0 53,-5 79,-16 26,-10 45,-21 58,-33l0 -87 -138 0z"/>
   <path id="1" class="fil2" d="M680 879l180 -469 67 0 192 469 -71 0 -55 -142 -196 0 -51 142 -66 0zm135 -193l159 0 -49 -130c-15,-39 -26,-72 -33,-97 -6,30 -14,60 -25,90l-52 138z"/>
  </g>
 </g>
</svg>
