<?xml version="1.0" encoding="UTF-8"?>
<!DOCTYPE svg PUBLIC "-//W3C//DTD SVG 1.1//EN" "http://www.w3.org/Graphics/SVG/1.1/DTD/svg11.dtd">
<!-- Creator: CorelDRAW X5 -->
<svg xmlns="http://www.w3.org/2000/svg" xml:space="preserve" width="50mm" height="50mm" style="shape-rendering:geometricPrecision; text-rendering:geometricPrecision; image-rendering:optimizeQuality; fill-rule:evenodd; clip-rule:evenodd"
viewBox="0 0 1311 1311"
 xmlns:xlink="http://www.w3.org/1999/xlink">
 <defs>
  <style type="text/css">
   <![CDATA[
    .fil0 {fill:#2B2A29}
    .fil1 {fill:#FEFEFE}
    .fil2 {fill:#2B2A29;fill-rule:nonzero}
   ]]>
  </style>
 </defs>
 <g id="Ebene_x0020_1">
  <metadata id="CorelCorpID_0Corel-Layer"/>
  <g id="_502027528">
   <g>
    <circle class="fil0" cx="655" cy="655" r="655"/>
    <circle class="fil1" cx="655" cy="655" r="603"/>
   </g>
   <path class="fil2" d="M340 707l0 -56 202 0 0 177c-31,25 -63,43 -96,56 -33,12 -67,19 -101,19 -47,0 -89,-10 -128,-30 -38,-20 -67,-49 -87,-87 -20,-38 -29,-80 -29,-127 0,-46 10,-90 29,-130 19,-40 47,-70 84,-90 36,-19 78,-29 126,-29 34,0 66,6 93,17 28,11 50,27 65,47 16,20 28,46 36,78l-57 16c-7,-24 -16,-43 -27,-57 -11,-14 -26,-25 -46,-33 -20,-8 -42,-13 -66,-13 -29,0 -54,4 -75,13 -21,9 -38,20 -51,35 -13,14 -23,30 -30,47 -12,29 -18,61 -18,96 0,43 7,78 22,107 15,29 36,50 64,64 28,14 58,21 89,21 27,0 54,-5 80,-16 26,-10 46,-22 59,-34l0 -89 -140 0z"/>
   <polygon id="1" class="fil2" points="574,894 574,417 918,417 918,473 637,473 637,619 900,619 900,675 637,675 637,837 929,837 929,894 "/>
   <path id="12" class="fil2" d="M1183 782l60 7c-10,35 -27,63 -53,82 -26,19 -59,29 -99,29 -50,0 -91,-16 -120,-47 -30,-31 -44,-75 -44,-131 0,-58 15,-103 45,-135 30,-32 69,-48 116,-48 46,0 84,16 113,47 29,31 44,76 44,133 0,4 0,9 0,16l-257 0c2,38 13,67 32,87 19,20 43,30 72,30 21,0 40,-6 55,-17 15,-11 27,-29 36,-54zm-192 -95l193 0c-3,-29 -10,-51 -22,-65 -19,-23 -43,-34 -72,-34 -27,0 -49,9 -68,27 -18,18 -28,42 -30,72z"/>
  </g>
 </g>
</svg>
