<?xml version="1.0" encoding="UTF-8"?>
<!DOCTYPE svg PUBLIC "-//W3C//DTD SVG 1.1//EN" "http://www.w3.org/Graphics/SVG/1.1/DTD/svg11.dtd">
<!-- Creator: CorelDRAW X5 -->
<svg xmlns="http://www.w3.org/2000/svg" xml:space="preserve" width="50mm" height="50mm" style="shape-rendering:geometricPrecision; text-rendering:geometricPrecision; image-rendering:optimizeQuality; fill-rule:evenodd; clip-rule:evenodd"
viewBox="0 0 842 842"
 xmlns:xlink="http://www.w3.org/1999/xlink">
 <defs>
  <style type="text/css">
   <![CDATA[
    .fil0 {fill:#2B2A29}
    .fil1 {fill:#FEFEFE}
    .fil2 {fill:#2B2A29;fill-rule:nonzero}
   ]]>
  </style>
 </defs>
 <g id="Ebene_x0020_1">
  <metadata id="CorelCorpID_0Corel-Layer"/>
  <g id="_328068952">
   <g>
    <circle class="fil0" cx="421" cy="421" r="421"/>
    <circle class="fil1" cx="421" cy="421" r="387"/>
   </g>
   <path class="fil2" d="M131 574l0 -306 61 0 72 217c7,20 12,35 15,45 3,-11 9,-28 16,-49l73 -213 55 0 0 306 -39 0 0 -256 -89 256 -37 0 -89 -261 0 261 -39 0z"/>
   <path id="1" class="fil2" d="M489 574l0 -306 105 0c24,0 42,1 55,4 18,4 32,11 45,22 16,14 28,31 36,52 8,21 12,45 12,73 0,23 -3,44 -8,62 -5,18 -12,33 -21,45 -8,12 -18,21 -28,28 -10,7 -22,12 -36,15 -14,3 -31,5 -49,5l-110 0zm40 -36l65 0c20,0 36,-2 48,-6 11,-4 21,-9 27,-16 10,-10 17,-23 22,-39 5,-16 8,-36 8,-59 0,-32 -5,-57 -16,-74 -11,-17 -23,-29 -38,-35 -11,-4 -28,-6 -52,-6l-64 0 0 234z"/>
  </g>
 </g>
</svg>
