<?xml version="1.0" encoding="UTF-8"?>
<!DOCTYPE svg PUBLIC "-//W3C//DTD SVG 1.1//EN" "http://www.w3.org/Graphics/SVG/1.1/DTD/svg11.dtd">
<!-- Creator: CorelDRAW X5 -->
<svg xmlns="http://www.w3.org/2000/svg" xml:space="preserve" width="72.8053mm" height="47.9563mm" style="shape-rendering:geometricPrecision; text-rendering:geometricPrecision; image-rendering:optimizeQuality; fill-rule:evenodd; clip-rule:evenodd"
viewBox="0 0 23697 15609"
 xmlns:xlink="http://www.w3.org/1999/xlink">
 <defs>
  <style type="text/css">
   <![CDATA[
    .fil0 {fill:#2B2A29}
    .fil1 {fill:#FEFEFE}
   ]]>
  </style>
 </defs>
 <g id="Ebene_x0020_1">
  <metadata id="CorelCorpID_0Corel-Layer"/>
  <g id="_485314048">
   <rect class="fil0" width="23697" height="15609"/>
   <path id="path10" class="fil1" d="M15431 7231c371,-1011 629,-2549 682,-3626l3796 944c-767,11243 -16972,11018 -16085,-216l1647 -524c-268,2102 383,3618 831,4313 -534,-2974 1711,-5382 4521,-5383 2527,-2 4618,1844 4608,4491l0 0zm-7638 94l0 0c0,1678 1360,3038 3038,3038 1677,0 3037,-1360 3037,-3038 0,-1677 -1360,-3037 -3037,-3037 -1678,0 -3038,1360 -3038,3037z"/>
  </g>
 </g>
</svg>
