<?xml version="1.0" encoding="UTF-8"?>
<!DOCTYPE svg PUBLIC "-//W3C//DTD SVG 1.1//EN" "http://www.w3.org/Graphics/SVG/1.1/DTD/svg11.dtd">
<!-- Creator: CorelDRAW X5 -->
<svg xmlns="http://www.w3.org/2000/svg" xml:space="preserve" width="4.7567mm" height="5.5051mm" style="shape-rendering:geometricPrecision; text-rendering:geometricPrecision; image-rendering:optimizeQuality; fill-rule:evenodd; clip-rule:evenodd"
viewBox="0 0 84 98"
 xmlns:xlink="http://www.w3.org/1999/xlink">
 <defs>
  <style type="text/css">
   <![CDATA[
    .fil0 {fill:black;fill-rule:nonzero}
   ]]>
  </style>
 </defs>
 <g id="Ebene_x0020_1">
  <metadata id="CorelCorpID_0Corel-Layer"/>
  <path class="fil0" d="M76 23c0,-4 -2,-8 -4,-10 -3,-3 -6,-4 -10,-4 -4,0 -8,2 -10,4 -3,3 -4,6 -4,10l0 51c0,6 -3,12 -7,16l0 0c-4,4 -10,7 -16,7 -6,0 -12,-3 -16,-7l0 0c-4,-4 -7,-10 -7,-16l9 0c0,4 2,8 4,10l0 0c3,3 6,4 10,4 4,0 8,-2 10,-4l0 0c3,-3 4,-6 4,-10l0 -51c0,-6 3,-12 7,-16 4,-4 10,-7 16,-7 6,0 12,3 16,7 4,4 7,10 7,16l0 0 0 51 -9 0 0 -51 0 0z"/>
 </g>
</svg>
